<svg id="visual" viewBox="0 0 900 600" width="900" height="600" xmlns="http://www.w3.org/2000/svg" xmlns:xlink="http://www.w3.org/1999/xlink" version="1.1"><path d="M0 73L21.5 74C43 75 86 77 128.8 74C171.7 71 214.3 63 257.2 59C300 55 343 55 385.8 53C428.7 51 471.3 47 514.2 43C557 39 600 35 642.8 37C685.7 39 728.3 47 771.2 50C814 53 857 51 878.5 50L900 49L900 0L878.5 0C857 0 814 0 771.2 0C728.3 0 685.7 0 642.8 0C600 0 557 0 514.2 0C471.3 0 428.7 0 385.8 0C343 0 300 0 257.2 0C214.3 0 171.7 0 128.8 0C86 0 43 0 21.5 0L0 0Z" fill="#ffcadd"></path><path d="M0 109L21.5 109C43 109 86 109 128.8 108C171.7 107 214.3 105 257.2 104C300 103 343 103 385.8 97C428.7 91 471.3 79 514.2 73C557 67 600 67 642.8 69C685.7 71 728.3 75 771.2 79C814 83 857 87 878.5 89L900 91L900 47L878.5 48C857 49 814 51 771.2 48C728.3 45 685.7 37 642.8 35C600 33 557 37 514.2 41C471.3 45 428.7 49 385.8 51C343 53 300 53 257.2 57C214.3 61 171.7 69 128.8 72C86 75 43 73 21.5 72L0 71Z" fill="#ffc4d9"></path><path d="M0 133L21.5 133C43 133 86 133 128.8 135C171.7 137 214.3 141 257.2 142C300 143 343 141 385.8 134C428.7 127 471.3 115 514.2 106C557 97 600 91 642.8 93C685.7 95 728.3 105 771.2 110C814 115 857 115 878.5 115L900 115L900 89L878.5 87C857 85 814 81 771.2 77C728.3 73 685.7 69 642.8 67C600 65 557 65 514.2 71C471.3 77 428.7 89 385.8 95C343 101 300 101 257.2 102C214.3 103 171.7 105 128.8 106C86 107 43 107 21.5 107L0 107Z" fill="#ffbdd5"></path><path d="M0 235L21.5 233C43 231 86 227 128.8 236C171.7 245 214.3 267 257.2 280C300 293 343 297 385.8 294C428.7 291 471.3 281 514.2 271C557 261 600 251 642.8 244C685.7 237 728.3 233 771.2 243C814 253 857 277 878.5 289L900 301L900 113L878.5 113C857 113 814 113 771.2 108C728.3 103 685.7 93 642.8 91C600 89 557 95 514.2 104C471.3 113 428.7 125 385.8 132C343 139 300 141 257.2 140C214.3 139 171.7 135 128.8 133C86 131 43 131 21.5 131L0 131Z" fill="#ffb7d0"></path><path d="M0 289L21.5 292C43 295 86 301 128.8 312C171.7 323 214.3 339 257.2 344C300 349 343 343 385.8 339C428.7 335 471.3 333 514.2 326C557 319 600 307 642.8 296C685.7 285 728.3 275 771.2 283C814 291 857 317 878.5 330L900 343L900 299L878.5 287C857 275 814 251 771.2 241C728.3 231 685.7 235 642.8 242C600 249 557 259 514.2 269C471.3 279 428.7 289 385.8 292C343 295 300 291 257.2 278C214.3 265 171.7 243 128.8 234C86 225 43 229 21.5 231L0 233Z" fill="#ffb0cc"></path><path d="M0 337L21.5 338C43 339 86 341 128.8 349C171.7 357 214.3 371 257.2 377C300 383 343 381 385.8 379C428.7 377 471.3 375 514.2 368C557 361 600 349 642.8 338C685.7 327 728.3 317 771.2 325C814 333 857 359 878.5 372L900 385L900 341L878.5 328C857 315 814 289 771.2 281C728.3 273 685.7 283 642.8 294C600 305 557 317 514.2 324C471.3 331 428.7 333 385.8 337C343 341 300 347 257.2 342C214.3 337 171.7 321 128.8 310C86 299 43 293 21.5 290L0 287Z" fill="#ffaac8"></path><path d="M0 499L21.5 496C43 493 86 487 128.8 479C171.7 471 214.3 461 257.2 466C300 471 343 491 385.8 493C428.7 495 471.3 479 514.2 475C557 471 600 479 642.8 478C685.7 477 728.3 467 771.2 469C814 471 857 485 878.5 492L900 499L900 383L878.5 370C857 357 814 331 771.2 323C728.3 315 685.7 325 642.8 336C600 347 557 359 514.2 366C471.3 373 428.7 375 385.8 377C343 379 300 381 257.2 375C214.3 369 171.7 355 128.8 347C86 339 43 337 21.5 336L0 335Z" fill="#ffa3c4"></path><path d="M0 559L21.5 561C43 563 86 567 128.8 566C171.7 565 214.3 559 257.2 557C300 555 343 557 385.8 556C428.7 555 471.3 551 514.2 551C557 551 600 555 642.8 558C685.7 561 728.3 563 771.2 565C814 567 857 569 878.5 570L900 571L900 497L878.5 490C857 483 814 469 771.2 467C728.3 465 685.7 475 642.8 476C600 477 557 469 514.2 473C471.3 477 428.7 493 385.8 491C343 489 300 469 257.2 464C214.3 459 171.7 469 128.8 477C86 485 43 491 21.5 494L0 497Z" fill="#ff9dbf"></path><path d="M0 601L21.5 601C43 601 86 601 128.8 601C171.7 601 214.3 601 257.2 601C300 601 343 601 385.8 601C428.7 601 471.3 601 514.2 601C557 601 600 601 642.8 601C685.7 601 728.3 601 771.2 601C814 601 857 601 878.5 601L900 601L900 569L878.5 568C857 567 814 565 771.2 563C728.3 561 685.7 559 642.8 556C600 553 557 549 514.2 549C471.3 549 428.7 553 385.8 554C343 555 300 553 257.2 555C214.3 557 171.7 563 128.8 564C86 565 43 561 21.5 559L0 557Z" fill="#ff96bb"></path></svg>